<svg width="61" height="68" viewBox="0 0 61 68" fill="none" xmlns="http://www.w3.org/2000/svg">
<path d="M3.4082 36.4219L5.10156 30.4688H5.92188L5.44727 32.7832L3.625 39H2.81055L3.4082 36.4219ZM1.65625 30.4688L3.00391 36.3047L3.4082 39H2.59961L0.53125 30.4688H1.65625ZM8.11328 36.2988L9.43164 30.4688H10.5625L8.5 39H7.69141L8.11328 36.2988ZM6.04492 30.4688L7.69141 36.4219L8.28906 39H7.47461L5.7168 32.7832L5.23633 30.4688H6.04492Z" fill="white"/>
<path d="M60.5 38.0801V39H55.9824V38.0801H60.5ZM56.2109 30.4688V39H55.0801V30.4688H56.2109ZM59.9023 34.1367V35.0566H55.9824V34.1367H59.9023ZM60.4414 30.4688V31.3945H55.9824V30.4688H60.4414Z" fill="white"/>
<path d="M32.9746 60.8438C32.9746 60.6445 32.9434 60.4688 32.8809 60.3164C32.8223 60.1602 32.7168 60.0195 32.5645 59.8945C32.416 59.7695 32.209 59.6504 31.9434 59.5371C31.6816 59.4238 31.3496 59.3086 30.9473 59.1914C30.5254 59.0664 30.1445 58.9277 29.8047 58.7754C29.4648 58.6191 29.1738 58.4414 28.9316 58.2422C28.6895 58.043 28.5039 57.8145 28.375 57.5566C28.2461 57.2988 28.1816 57.0039 28.1816 56.6719C28.1816 56.3398 28.25 56.0332 28.3867 55.752C28.5234 55.4707 28.7188 55.2266 28.9727 55.0195C29.2305 54.8086 29.5371 54.6445 29.8926 54.5273C30.248 54.4102 30.6445 54.3516 31.082 54.3516C31.7227 54.3516 32.2656 54.4746 32.7109 54.7207C33.1602 54.9629 33.502 55.2812 33.7363 55.6758C33.9707 56.0664 34.0879 56.4844 34.0879 56.9297H32.9629C32.9629 56.6094 32.8945 56.3262 32.7578 56.0801C32.6211 55.8301 32.4141 55.6348 32.1367 55.4941C31.8594 55.3496 31.5078 55.2773 31.082 55.2773C30.6797 55.2773 30.3477 55.3379 30.0859 55.459C29.8242 55.5801 29.6289 55.7441 29.5 55.9512C29.375 56.1582 29.3125 56.3945 29.3125 56.6602C29.3125 56.8398 29.3496 57.0039 29.4238 57.1523C29.502 57.2969 29.6211 57.4316 29.7812 57.5566C29.9453 57.6816 30.1523 57.7969 30.4023 57.9023C30.6562 58.0078 30.959 58.1094 31.3105 58.207C31.7949 58.3438 32.2129 58.4961 32.5645 58.6641C32.916 58.832 33.2051 59.0215 33.4316 59.2324C33.6621 59.4395 33.832 59.6758 33.9414 59.9414C34.0547 60.2031 34.1113 60.5 34.1113 60.832C34.1113 61.1797 34.041 61.4941 33.9004 61.7754C33.7598 62.0566 33.5586 62.2969 33.2969 62.4961C33.0352 62.6953 32.7207 62.8496 32.3535 62.959C31.9902 63.0645 31.584 63.1172 31.1348 63.1172C30.7402 63.1172 30.3516 63.0625 29.9688 62.9531C29.5898 62.8438 29.2441 62.6797 28.9316 62.4609C28.623 62.2422 28.375 61.9727 28.1875 61.6523C28.0039 61.3281 27.9121 60.9531 27.9121 60.5273H29.0371C29.0371 60.8203 29.0938 61.0723 29.207 61.2832C29.3203 61.4902 29.4746 61.6621 29.6699 61.7988C29.8691 61.9355 30.0938 62.0371 30.3438 62.1035C30.5977 62.166 30.8613 62.1973 31.1348 62.1973C31.5293 62.1973 31.8633 62.1426 32.1367 62.0332C32.4102 61.9238 32.6172 61.7676 32.7578 61.5645C32.9023 61.3613 32.9746 61.1211 32.9746 60.8438Z" fill="white"/>
<path d="M34.7695 5.46875V14H33.6328L29.3379 7.41992V14H28.207V5.46875H29.3379L33.6504 12.0664V5.46875H34.7695Z" fill="white"/>
<circle cx="31.5" cy="34.5" r="17" stroke="white"/>
</svg>
