<svg width="179" height="67" viewBox="0 0 179 67" fill="none" xmlns="http://www.w3.org/2000/svg">
<path d="M175.175 56.925L174.125 55.825L176.275 53.725L177.325 54.775L175.175 56.925ZM159 66.75V65.25H179V66.75H159ZM168.25 54V51H169.75V54H168.25ZM162.825 56.9L160.7 54.725L161.75 53.675L163.925 55.85L162.825 56.9ZM163.7 61.5H174.3C173.983 60.3167 173.342 59.3542 172.375 58.6125C171.408 57.8708 170.283 57.5 169 57.5C167.717 57.5 166.592 57.8708 165.625 58.6125C164.658 59.3542 164.017 60.3167 163.7 61.5ZM162 63C162 61.05 162.679 59.3958 164.037 58.0375C165.396 56.6792 167.05 56 169 56C170.95 56 172.604 56.6792 173.962 58.0375C175.321 59.3958 176 61.05 176 63H162Z" fill="white"/>
<path d="M16.175 56.925L15.125 55.825L17.275 53.725L18.325 54.775L16.175 56.925ZM0 66.75V65.25H20V66.75H0ZM9.25 54V51H10.75V54H9.25ZM3.825 56.9L1.7 54.725L2.75 53.675L4.925 55.85L3.825 56.9ZM4.7 61.5H15.3C14.9833 60.3167 14.3417 59.3542 13.375 58.6125C12.4083 57.8708 11.2833 57.5 10 57.5C8.71667 57.5 7.59167 57.8708 6.625 58.6125C5.65833 59.3542 5.01667 60.3167 4.7 61.5ZM3 63C3 61.05 3.67917 59.3958 5.0375 58.0375C6.39583 56.6792 8.05 56 10 56C11.95 56 13.6042 56.6792 14.9625 58.0375C16.3208 59.3958 17 61.05 17 63H3Z" fill="white"/>
<path fill-rule="evenodd" clip-rule="evenodd" d="M20.5574 53H18C18.1986 52.6328 18.3999 52.2674 18.604 51.9037L19.9121 52.6378L20.5574 53ZM156.275 53H158.833C158.634 52.6328 158.433 52.2674 158.229 51.9037L156.921 52.6379L156.275 53ZM153.695 47.3852L154.942 46.5507C153.775 44.8078 152.541 43.1134 151.245 41.4709L150.067 42.4003L148.89 43.3298C150.138 44.9109 151.326 46.542 152.449 48.2197L153.695 47.3852ZM146.061 37.7144L147.163 36.6959C145.74 35.158 144.258 33.676 142.72 32.2537L141.702 33.3549L140.684 34.4562C142.164 35.8255 143.591 37.2522 144.96 38.7329L146.061 37.7144ZM137.016 29.349L137.945 28.1717C136.303 26.8751 134.609 25.6416 132.866 24.4748L132.031 25.7212L131.197 26.9677C132.874 28.0908 134.505 29.2782 136.087 30.5264L137.016 29.349ZM126.779 22.4957L127.513 21.1876C125.691 20.165 123.824 19.2117 121.918 18.3313L121.289 19.6931L120.66 21.0549C122.495 21.9022 124.291 22.8196 126.044 23.8038L126.779 22.4957ZM115.594 17.3316L116.113 15.9244C114.157 15.2024 112.165 14.5548 110.141 13.9848L109.734 15.4287L109.328 16.8726C111.276 17.421 113.193 18.0442 115.075 18.7388L115.594 17.3316ZM103.738 13.9942L104.029 12.5227C101.988 12.1189 99.919 11.7928 97.8252 11.5474L97.6506 13.0373L97.4761 14.5271C99.4915 14.7632 101.483 15.0771 103.447 15.4657L103.738 13.9942ZM91.5039 12.5596L91.5618 11.0607C90.5184 11.0204 89.4697 11 88.4164 11C87.363 11 86.3144 11.0204 85.271 11.0607L85.3289 12.5596L85.3869 14.0585C86.3917 14.0196 87.4017 14 88.4164 14C89.4311 14 90.441 14.0196 91.4459 14.0585L91.5039 12.5596ZM79.1822 13.0373L79.0076 11.5474C76.9138 11.7927 74.8446 12.1189 72.8034 12.5227L73.0945 13.9942L73.3856 15.4657C75.3499 15.0771 77.3412 14.7632 79.3567 14.5271L79.1822 13.0373ZM67.0987 15.4287L66.6922 13.9848C64.6676 14.5548 62.6755 15.2024 60.7193 15.9244L61.2387 17.3316L61.758 18.7388C63.6402 18.0442 65.5571 17.421 67.5052 16.8726L67.0987 15.4287ZM55.5439 19.6931L54.915 18.3313C53.0083 19.2117 51.1422 20.165 49.3201 21.1876L50.0542 22.4957L50.7884 23.8038C52.542 22.8196 54.3379 21.9022 56.1727 21.0549L55.5439 19.6931ZM44.8016 25.7212L43.9671 24.4748C42.2242 25.6416 40.5297 26.8751 38.8873 28.1717L39.8167 29.349L40.7461 30.5264C42.3273 29.2782 43.9584 28.0908 45.6361 26.9677L44.8016 25.7212ZM35.1308 33.3549L34.1123 32.2537C32.5744 33.676 31.0924 35.158 29.6701 36.6959L30.7713 37.7144L31.8725 38.7329C33.2419 37.2522 34.6686 35.8255 36.1492 34.4562L35.1308 33.3549ZM26.7654 42.4003L25.5881 41.4709C24.2915 43.1134 23.058 44.8078 21.8912 46.5507L23.1376 47.3852L24.3841 48.2197C25.5072 46.542 26.6946 44.9109 27.9428 43.3298L26.7654 42.4003Z" fill="#DADADA"/>
<path d="M89.1818 4.09091V0H90.8182V4.09091H89.1818ZM96.1636 6.98182L95.0182 5.83636L97.9091 2.91818L99.0545 4.09091L96.1636 6.98182ZM97.9091 12.8182V11.1818H102V12.8182H97.9091ZM89.1818 24V19.9091H90.8182V24H89.1818ZM83.8091 6.95455L80.9455 4.09091L82.0909 2.94545L84.9818 5.83636L83.8091 6.95455ZM97.9364 21.0545L95.0182 18.1636L96.1364 17.0455L99.0818 19.8818L97.9364 21.0545ZM78 12.8182V11.1818H82.0909V12.8182H78ZM82.1182 21.0545L80.9455 19.9091L83.8091 17.0455L84.4091 17.5909L85.0091 18.1636L82.1182 21.0545ZM90 18.5455C88.1818 18.5455 86.6364 17.9091 85.3636 16.6364C84.0909 15.3636 83.4545 13.8182 83.4545 12C83.4545 10.1818 84.0909 8.63636 85.3636 7.36364C86.6364 6.09091 88.1818 5.45455 90 5.45455C91.8182 5.45455 93.3636 6.09091 94.6364 7.36364C95.9091 8.63636 96.5455 10.1818 96.5455 12C96.5455 13.8182 95.9091 15.3636 94.6364 16.6364C93.3636 17.9091 91.8182 18.5455 90 18.5455ZM90 16.9091C91.3636 16.9091 92.5227 16.4318 93.4773 15.4773C94.4318 14.5227 94.9091 13.3636 94.9091 12C94.9091 10.6364 94.4318 9.47727 93.4773 8.52273C92.5227 7.56818 91.3636 7.09091 90 7.09091C88.6364 7.09091 87.4773 7.56818 86.5227 8.52273C85.5682 9.47727 85.0909 10.6364 85.0909 12C85.0909 13.3636 85.5682 14.5227 86.5227 15.4773C87.4773 16.4318 88.6364 16.9091 90 16.9091Z" fill="white"/>
</svg>
