<svg width="14" height="24" viewBox="0 0 14 24" fill="none" xmlns="http://www.w3.org/2000/svg">
<path d="M7 24C6.825 24 6.65972 23.9524 6.50417 23.8571C6.34861 23.7619 6.23194 23.619 6.15417 23.4286L0 6.2L3.90833 7.08571L6.125 5.77143V2.45714C6.125 1.79048 6.38264 1.21429 6.89792 0.728572C7.41319 0.242857 8.03056 0 8.75 0C9.48889 0 10.1111 0.242857 10.6167 0.728572C11.1222 1.21429 11.375 1.79048 11.375 2.45714V2.85714H9.625V2.45714C9.625 2.20952 9.54236 2.00952 9.37708 1.85714C9.21181 1.70476 9.00278 1.62857 8.75 1.62857C8.51667 1.62857 8.3125 1.71429 8.1375 1.88571C7.9625 2.05714 7.875 2.24762 7.875 2.45714V5.77143L10.0917 7.08571L14 6.2L7.84583 23.4C7.76806 23.6095 7.65139 23.7619 7.49583 23.8571C7.34028 23.9524 7.175 24 7 24ZM7.875 18.1714L11.2875 8.57143L9.68333 8.91429L7.875 7.77143V18.1714ZM6.125 18.1714V7.77143L4.31667 8.94286L2.68333 8.54286L6.125 18.1714Z" fill="white"/>
</svg>
